
<svg width="141px" height="52px" viewBox="0 0 141 52" version="1.1" xmlns="http://www.w3.org/2000/svg" xmlns:xlink="http://www.w3.org/1999/xlink">
    <!-- Generator: Sketch 45.1 (43504) - http://www.bohemiancoding.com/sketch -->
    <desc>Created with Sketch.</desc>
    <defs></defs>
    <g id="Home" stroke="none" stroke-width="1" fill="none" fill-rule="evenodd">
        <g id="Home-final" transform="translate(-20.000000, -10.000000)">
            <g id="backpacklogobig1-copy" transform="translate(20.000000, 10.000000)">
                <g id="Group" transform="translate(70.531040, 26.000000) scale(1, -1) translate(-70.531040, -26.000000) translate(0.031040, 0.000000)">
                    <path d="M16.8859349,31.6967164 C16.8859349,15.5379104 16.9324953,11.3002985 17.0876969,11.2537313 C17.4601808,11.0985075 46.2655991,4.34626866 46.3121596,4.39283582 C46.3431999,4.4238806 39.7936921,15.0567164 31.769769,28.0179104 C23.7458459,40.9946269 17.1032171,51.720597 17.0256163,51.8447761 C16.9480155,51.9844776 16.8859349,43.6023881 16.8859349,31.6967164 L16.8859349,31.6967164 Z" id="Shape" fill="#00AD00"></path>
                    <path d="M126.458269,28.3283582 L126.458269,13.6597015 L127.699882,13.6597015 L128.941495,13.6597015 L128.941495,16.3295522 L128.941495,19.0149254 L129.329499,18.6113433 L129.717503,18.2232836 L129.4071,17.3074627 C129.236378,16.8107463 129.127737,16.3761194 129.158777,16.3450746 C129.189818,16.3140299 131.704084,15.4602985 134.746035,14.4358209 C138.501914,13.1940299 140.302253,12.6507463 140.348813,12.7749254 C140.566096,13.3802985 140.892019,14.3271642 140.892019,14.358209 C140.892019,14.3892537 138.517434,15.1964179 135.615164,16.1743284 C132.712894,17.1367164 130.33831,17.9749254 130.33831,18.0214925 C130.33831,18.0835821 131.812725,19.3564179 133.597543,20.8620896 C137.16718,23.8579104 136.996459,23.6250746 136.12733,24.6185075 L135.692765,25.1152239 L132.355931,22.3367164 L129.019096,19.5426866 L128.972536,31.2776119 L128.941495,42.9970149 L127.699882,42.9970149 L126.458269,42.9970149 L126.458269,28.3283582 L126.458269,28.3283582 Z" id="Shape" fill="#53585F"></path>
                    <path d="M49.3230707,31.681194 L49.3230707,22.2280597 L48.9816272,22.0107463 L48.6401837,21.7779104 L48.9816272,21.2346269 C49.2765103,20.7689552 49.3230707,20.4585075 49.3230707,19.1080597 C49.3230707,18.2543284 49.2609901,17.5402985 49.1989095,17.5402985 C49.1213087,17.5402985 48.9350667,17.6334328 48.7798651,17.7576119 C48.5160224,17.9438806 48.4229014,17.881791 47.7400143,17.0125373 L47.0105668,16.0656716 L47.3520103,15.7862687 C47.5382523,15.6310448 48.0659377,15.2895522 48.5160224,15.041194 L49.3230707,14.56 L49.3230707,13.0232836 L49.3230707,11.4865672 L50.5646836,11.4865672 L51.8062965,11.4865672 L51.8062965,12.5886567 C51.8062965,13.52 51.8373368,13.6752239 52.054619,13.5976119 C52.6754255,13.3647761 54.4757641,13.1785075 55.3759334,13.2716418 C59.1783728,13.6441791 61.6926388,15.7241791 62.2203243,18.9528358 C62.4996872,20.7379104 62.0806428,22.1349254 60.8855905,23.4232836 C60.0785421,24.2770149 59.1783728,24.7271642 57.7039575,24.9910448 C56.0898608,25.2859701 53.885998,24.96 52.3960626,24.199403 L51.8062965,23.9044776 L51.8062965,32.519403 L51.8062965,41.1343284 L50.5646836,41.1343284 L49.3230707,41.1343284 L49.3230707,31.681194 L49.3230707,31.681194 Z M57.9057196,22.4919403 C58.619647,22.3056716 59.4577357,21.5916418 59.7215784,20.9552239 C59.8302195,20.6913433 59.8923002,20.1014925 59.8457397,19.5737313 C59.6750179,17.1056716 57.3159535,15.5068657 54.2119214,15.7241791 C53.5290343,15.7707463 52.7064658,15.8949254 52.3805424,16.0035821 L51.8062965,16.2053731 L51.8373368,18.6734328 L51.8838973,21.1570149 L52.8151069,21.6847761 C53.3272722,21.9641791 54.0567198,22.3056716 54.4447238,22.4143284 C55.2828125,22.678209 57.0831511,22.7247761 57.9057196,22.4919403 L57.9057196,22.4919403 Z" id="Shape" fill="#53585F"></path>
                    <path d="M7.54279811,23.3456716 C3.36787487,16.6244776 -0.0155201607,11.1140299 0.0155201607,11.0829851 C0.0620806428,11.0519403 15.0545559,14.5755224 15.1321567,14.6531343 C15.163197,14.6686567 15.163197,19.3874627 15.1476769,25.1307463 L15.1011164,35.5773134 L7.54279811,23.3456716 L7.54279811,23.3456716 Z" id="Shape" fill="#005400"></path>
                    <path d="M81.9154082,21.1880597 L81.9154082,13.6597015 L83.1259808,13.6597015 L84.3210331,13.6597015 L84.2744727,16.3761194 C84.2434323,17.8662687 84.2899928,19.0925373 84.3520735,19.0925373 C84.4141541,19.0925373 84.6314364,18.8752239 84.8021581,18.6113433 L85.1280815,18.1456716 L84.8176783,17.2919403 C84.6469565,16.8262687 84.5383154,16.4226866 84.5693557,16.3916418 C84.6779968,16.2674627 94.3625771,12.6973134 94.4091376,12.759403 C94.5798594,12.9146269 95.0765045,14.4358209 94.9833836,14.4823881 C94.9213029,14.5289552 92.8571215,15.3050746 90.3738958,16.2208955 C87.9061903,17.1367164 85.8264887,17.9283582 85.7644081,17.9904478 C85.7023275,18.0370149 86.7111379,18.8131343 87.9993112,19.7134328 C91.9259119,22.4298507 91.5844684,22.1349254 91.2895853,22.6316418 C91.1499039,22.88 90.9171014,23.2370149 90.7618998,23.4232836 L90.4980571,23.7802985 L87.4716258,21.6692537 C85.7954484,20.5050746 84.3831138,19.558209 84.3365533,19.558209 C84.2744727,19.558209 84.2589525,21.6226866 84.2744727,24.1373134 L84.3210331,28.7164179 L83.1259808,28.7164179 L81.9154082,28.7164179 L81.9154082,21.1880597 L81.9154082,21.1880597 Z" id="Shape" fill="#53585F"></path>
                    <path d="M95.4179481,13.038806 L95.4179481,0 L96.6595609,0 L97.9011738,0 L97.9011738,10.6483582 C97.8856536,16.5158209 97.9166939,21.3432836 97.9632544,21.3743284 C98.0098149,21.4208955 98.0874157,21.1880597 98.1494963,20.8776119 C98.2426173,20.3343284 98.2736576,20.3032836 98.7392624,20.3964179 C99.0031052,20.4585075 99.949835,20.5361194 100.865524,20.5826866 C102.32442,20.6758209 102.557222,20.6447761 103.131468,20.3498507 C104.29548,19.76 104.838686,18.6579104 104.34204,17.9128358 C103.783315,17.0591045 102.479621,16.5623881 100.027436,16.2829851 L98.4443794,16.0967164 L98.4909399,15.1653731 L98.5530205,14.2340299 L99.8101535,14.3426866 C103.209069,14.6220896 105.459492,15.6155224 106.142379,17.1522388 C106.949427,18.9062687 105.940617,21.2191045 103.985077,22.0728358 C102.681383,22.6626866 101.40873,22.7092537 98.5219802,22.2746269 L97.823573,22.1659701 L97.8701334,24.121791 L97.9166939,26.0776119 L96.6750811,26.0776119 L95.4179481,26.0776119 L95.4179481,13.038806 L95.4179481,13.038806 Z" id="Shape" fill="#53585F"></path>
                    <path d="M113.452375,23.2525373 L113.498935,22.7402985 L112.381484,22.7868657 C110.953629,22.8644776 109.944818,22.5385075 109.013609,21.7158209 C108.004798,20.8310448 107.477113,19.6668657 107.477113,18.3319403 C107.477113,15.9104478 109.184331,14.5910448 112.288363,14.5910448 L113.421334,14.5910448 L113.421334,14.1253731 L113.421334,13.6597015 L114.430145,13.6597015 L115.438955,13.6597015 L115.438955,14.4202985 C115.438955,15.0722388 115.485516,15.1964179 115.795919,15.2585075 C115.982161,15.320597 116.261524,15.4447761 116.416725,15.5689552 C116.696088,15.7552239 116.696088,15.7862687 116.432246,16.360597 C116.199443,16.841791 116.090802,16.919403 115.795919,16.841791 L115.438955,16.7641791 L115.438955,20.2567164 L115.438955,23.7492537 L114.414625,23.7492537 L113.390294,23.7492537 L113.452375,23.2525373 L113.452375,23.2525373 Z M113.188532,21.2035821 C113.483415,21.001791 113.498935,20.8310448 113.452375,18.4716418 L113.405814,15.9414925 L111.97796,16.0191045 C110.006899,16.1277612 109.184331,16.5934328 108.920488,17.7576119 C108.641125,18.9838806 109.386093,20.4740299 110.596665,21.1104478 C111.279552,21.4674627 112.738447,21.5295522 113.188532,21.2035821 L113.188532,21.2035821 Z" id="Shape" fill="#53585F"></path>
                    <path d="M69.6544813,22.5850746 C69.6544813,22.1970149 69.623441,22.1814925 69.0802353,22.3056716 C66.146925,22.8955224 63.3998565,20.9241791 63.1670541,18.0680597 C63.0273727,16.1898507 63.6792194,14.9480597 65.2467556,14.1874627 C65.9762032,13.8304478 66.348687,13.7683582 67.8696628,13.6907463 C69.4837595,13.6286567 69.6544813,13.5820896 69.6544813,13.3337313 C69.6544813,13.0853731 69.7786426,13.038806 70.3528885,13.038806 C71.0357756,13.038806 71.0512957,13.0543284 71.0512957,13.5510448 C71.0512957,14.0322388 71.1133764,14.0943284 71.9049046,14.4202985 C72.3705094,14.6220896 72.7585134,14.8083582 72.7585134,14.8549254 C72.7585134,14.9014925 72.5722715,15.2740299 72.3394691,15.6931343 C71.9204247,16.4226866 71.6410618,16.6244776 71.4392998,16.2985075 C71.1288965,15.7862687 71.0512957,16.4226866 71.0512957,19.558209 L71.0512957,22.9731343 L70.3528885,22.9731343 C69.7010418,22.9731343 69.6544813,22.9420896 69.6544813,22.5850746 L69.6544813,22.5850746 Z M69.1112756,20.2722388 L69.6544813,20.039403 L69.6544813,17.8662687 L69.6544813,15.6931343 L69.0957555,15.5844776 C68.3352676,15.4447761 66.6590903,15.6155224 66.1314048,15.8949254 C65.1691548,16.3916418 64.7811508,17.4161194 65.1381145,18.5026866 C65.3553968,19.1391045 66.1314048,19.9928358 66.7832515,20.2722388 C67.404058,20.5516418 68.4594289,20.5361194 69.1112756,20.2722388 L69.1112756,20.2722388 Z" id="Shape" fill="#53585F"></path>
                    <path d="M75.909106,22.2280597 C73.2861989,21.2967164 72.0756263,19.1546269 72.8516344,16.8728358 C73.1775578,15.9259701 74.1863682,15.0256716 75.4435012,14.5910448 C76.2195093,14.3116418 76.871356,14.2340299 78.7803358,14.1719403 L81.1394002,14.0943284 L81.1394002,15.2429851 L81.1394002,16.4071642 L79.090739,16.5002985 C76.9955173,16.5934328 75.9246262,16.8262687 75.3659004,17.3385075 C75.0089367,17.6489552 74.9934166,18.5802985 75.3348601,19.0614925 C75.6763036,19.558209 76.7316746,20.0549254 77.5076826,20.0549254 L78.1595293,20.0704478 L78.6406543,21.1259701 C78.9355374,21.8244776 79.0441785,22.2280597 78.9355374,22.2901493 C78.516493,22.5540299 76.7006342,22.5074627 75.909106,22.2280597 L75.909106,22.2280597 Z" id="Shape" fill="#53585F"></path>
                    <path d="M121.072774,22.3522388 C120.219165,22.1814925 119.287955,21.6847761 118.527467,21.001791 C117.410016,19.9928358 117.006492,18.7510448 117.301375,17.2764179 C117.549697,16.1432836 118.542988,15.0877612 119.831161,14.6065672 C120.886532,14.2185075 123.167995,13.9235821 124.642411,14.001194 L125.697782,14.0477612 L125.728822,15.2274627 L125.759862,16.4226866 L123.58704,16.4847761 C120.70029,16.5779104 119.629399,17.0125373 119.629399,18.0835821 C119.629399,19.0614925 120.871012,20.0238806 122.112624,20.0238806 C122.748951,20.0238806 122.748951,20.0238806 123.214556,21.0483582 C123.462878,21.6226866 123.6336,22.119403 123.60256,22.1504478 C123.493919,22.2591045 122.376467,22.5074627 122.035024,22.4919403 C121.864302,22.4764179 121.429737,22.4143284 121.072774,22.3522388 L121.072774,22.3522388 Z" id="Shape" fill="#53585F"></path>
                </g>
            </g>
        </g>
    </g>
</svg>
