
<svg width="231px" height="129px" viewBox="0 0 231 129" version="1.1" xmlns="http://www.w3.org/2000/svg" xmlns:xlink="http://www.w3.org/1999/xlink">
    <!-- Generator: Sketch 45.1 (43504) - http://www.bohemiancoding.com/sketch -->
    <desc>Created with Sketch.</desc>
    <defs></defs>
    <g id="Home" stroke="none" stroke-width="1" fill="none" fill-rule="evenodd">
        <g id="More" transform="translate(-259.000000, -629.000000)">
            <g id="Group-4" transform="translate(259.000000, 629.000000)">
                <g id="Layer_2-Copy">
                    <g id="Group" transform="translate(78.446376, 15.544982)" stroke="#525860">
                        <path d="M2.8330116,36.7287022 C5.92290459,34.6190845 6.84597049,33.7236117 9.03840443,32.6947793 C10.7963349,31.869668 12.4941095,31.5542685 14.4483591,31.5473142 C16.1741794,31.541178 18.6718632,31.9670287 20.0420328,33.313306 C22.13082,35.3652436 22.1527687,36.7287022 22.1011486,38.6329625 C21.9922179,42.6918392 18.7121026,45.7521553 15.4055675,46.5805392 C11.186128,47.637598 9.24122693,46.9000295 6.99392117,46.334274 C5.08966588,45.854834 3.10411902,45.0464949 0.258913685,42.8644703" id="Shape" stroke-width="3"></path>
                        <path d="M37.1108261,36.8489713 C32.8686249,33.5194815 26.8250023,36.8469259 26.9493785,42.0307684 C27.0253861,45.176991 29.377558,46.5416768 31.9622238,46.7494887 C35.620345,47.0444342 37.7509973,46.6304468 40.4978398,45.03095" id="Shape" stroke-width="3"></path>
                        <path d="M3,3.18426689 L3,52.0008291" id="Shape" stroke-width="3"></path>
                        <path d="M36,32.9107728 L36,49.5463582" id="Shape" stroke-width="2"></path>
                        <path d="M50.7950444,36.1834006 C47.8705797,34.8461231 43.2682569,37.2764583 42.9439035,40.308548 C42.2947902,46.3719092 50.9230786,45.7280197 54.9949739,45.7280197" id="Shape" stroke-width="3"></path>
                        <path d="M57,23.5019677 L57,48.455755" id="Shape" stroke-width="3"></path>
                        <path d="M77.2050532,48.5502521 L60.8113865,42.4140749" id="Shape" stroke-width="2"></path>
                        <path d="M60.8113865,40.2328685 L71.1081846,33.0052699" id="Shape" stroke-width="2"></path>
                        <path d="M109.177845,35.716233 C104.935644,32.3867432 98.8920212,35.7141876 99.0163973,40.8980301 C99.0924049,44.0434345 101.444577,45.4081203 104.029243,45.6167503 C107.687364,45.9108778 109.818016,45.4968903 112.564859,43.8973935" id="Shape" stroke-width="2"></path>
                        <path d="M107,31.7780345 L107,48.4144381" id="Shape" stroke-width="3"></path>
                        <path d="M123.674979,36.2778977 C120.750514,34.9406202 116.148192,37.3709554 115.823838,40.402636 C115.174725,46.4659973 123.803013,45.8229259 127.874909,45.8229259" id="Shape" stroke-width="3"></path>
                        <path d="M130,0.0482712606 L130,48.5502521" id="Shape" stroke-width="3"></path>
                        <path d="M152.138413,48.6451583 L133.691728,42.5089811" id="Shape" stroke-width="2"></path>
                        <path d="M133.691728,40.3269565 L145.093278,30.7291572" id="Shape" stroke-width="2"></path>
                        <path d="M79,27.8656079 L79,70.9550714" id="Shape" stroke-width="3"></path>
                        <path d="M82.498761,36.0471775 C85.4793168,35.3652436 86.9697979,35.0846158 89.5438958,35.3652436 C92.5687555,35.6949609 94.4847981,37.9498015 94.6920916,40.1408258 C95.1603311,45.0927208 86.4743257,45.7063385 83.1759198,45.8646519" id="Shape" stroke-width="3"></path>
                    </g>
                    <g id="Group">
                        <polygon id="_x3C_The_x5F_Triangle_x3E__15_" fill="#00AD00" points="28.1671264 0.0769067542 77.0790513 79.611172 28.2130561 68.0354783"></polygon>
                        <polygon id="_x3C_The_x5F_Triangle_x3E__16_" fill="#005400" points="25.5987188 27.4217577 0.395077084 68.404467 25.5755507 62.4396937"></polygon>
                    </g>
                </g>
                <g id="Group-2" transform="translate(39.000000, 98.000000)">
                    <text id="Made-with-" fill="#B2B2B2" font-family="AvenirNext-Italic, Avenir Next" font-size="22" font-style="italic" font-weight="normal" line-spacing="44">
                        <tspan x="18.025" y="22">Made with </tspan>
                    </text>
                    <g id="social" transform="translate(130.000000, 11.000000)" fill="#ED5D58">
                        <g id="Capa_1">
                            <path d="M22.3549173,4.03867577 C20.6773416,-1.18702119 12.1567355,-1.35865756 10.6659476,3.62364547 C8.65988701,-0.427506043 2.94497792,-0.504718165 0.768493075,3.87128184 C-2.23271905,9.90522123 4.1737052,17.3558879 9.34025065,19.6532212 C9.37006883,19.6663121 9.39915974,19.6722515 9.42728095,19.6738273 C9.47734156,19.7613424 9.55225065,19.8331 9.65479611,19.8611 C10.5458264,20.1046152 11.959887,18.8375849 12.6300688,18.4236455 C13.3506749,17.9786758 14.1121294,17.5482515 14.8577052,17.0961303 C14.8968567,17.1175849 14.9349173,17.1431606 14.9746749,17.1626758 C15.2008567,17.2756455 15.4206143,17.0276455 15.2934628,16.8280091 C15.8383113,16.4863121 16.3683719,16.1289788 16.8600082,15.7400091 C20.3207355,13.0029182 23.8761294,8.77673638 22.3549173,4.03867577 L22.3549173,4.03867577 Z M21.1490991,3.80582729 C20.9227961,3.63746365 20.7071597,3.48776668 20.5464325,3.3638879 C19.5129779,2.56740305 18.4380688,1.82352426 17.3506749,1.1019485 C18.9292203,1.37261517 20.3797658,2.27673638 21.1490991,3.80582729 L21.1490991,3.80582729 Z M16.6684931,1.02885759 C16.6807355,1.05940305 16.6991597,1.08861517 16.7323719,1.11140305 C18.4994022,2.31685759 20.12219,3.58606971 21.5946749,5.10449396 C21.6229173,5.24158487 21.651887,5.37831214 21.6709173,5.52231214 C21.6812203,5.60073638 21.6866749,5.67879699 21.6939476,5.75685759 C20.6807355,4.9838879 19.5852203,4.30667577 18.5904325,3.5029182 C17.6458264,2.73952426 16.7409779,1.91528184 15.907281,1.02849396 C16.1607355,1.01116062 16.4150385,1.01455456 16.6684931,1.02885759 L16.6684931,1.02885759 Z M9.43115974,19.1989182 C7.55746277,18.0969788 5.64291732,16.4251 4.11782641,14.4659485 C4.33019005,14.6669182 4.53843247,14.8603727 4.73309914,15.0442515 C6.1957658,16.4265546 7.86946277,17.9889788 9.59831126,19.0875243 C9.52764459,19.1104334 9.46909914,19.1466758 9.43115974,19.1989182 L9.43115974,19.1989182 Z M10.1310385,18.9066758 C8.95806883,17.5158879 7.2087355,16.4638879 5.82703853,15.2935849 C4.43515974,14.114797 3.16788701,12.886797 2.18740217,11.3687364 C1.86449308,10.6865546 1.6047355,9.98946365 1.41394762,9.2869182 C2.64400823,11.0350394 4.20049308,12.6349182 5.68012944,14.158797 C7.19928095,15.7229182 9.09309914,17.5097061 11.217584,18.2139485 C10.8600082,18.4751606 10.4772203,18.7406152 10.1310385,18.9066758 L10.1310385,18.9066758 Z M12.5825537,17.2758879 C10.3397658,16.2087364 8.44061429,14.1574637 6.68364459,12.4741909 C5.58279611,11.4192818 4.51661429,10.3271606 3.48958398,9.20037274 C2.88364459,8.53564547 2.35164459,7.5869182 1.66097792,7.02461517 C1.60922035,6.98243335 1.54425065,7.0109182 1.5367355,7.07613032 C1.4617052,7.72000911 2.40340217,8.57479699 2.77322035,9.02425153 C3.87479611,10.3629182 5.09685671,11.611403 6.31843247,12.8395243 C7.57237186,14.1002515 8.87649308,15.3156455 10.2591597,16.4343121 C10.7186749,16.8060697 11.3440082,17.3875243 11.9907961,17.6545546 C11.8881294,17.7241303 11.7789173,17.8012212 11.6594022,17.8889788 C11.6443719,17.8743121 11.6303113,17.8590394 11.6092203,17.8477667 C9.52812944,16.7360091 7.75758398,15.4252212 6.04594762,13.7932212 C4.41455368,12.2378273 3.04643247,10.3812212 1.36255368,8.89116062 C1.34667489,8.87722123 1.32800823,8.87346365 1.30946277,8.87152426 C1.14340217,8.14776668 1.05322035,7.41964547 1.06122035,6.69613032 C1.06655368,6.20606971 1.13903853,5.7259485 1.26667489,5.26558487 C5.35079611,9.02558487 8.99285671,13.2429182 13.1596446,16.9118879 C12.9670385,17.0326152 12.7754022,17.1551606 12.5825537,17.2758879 L12.5825537,17.2758879 Z M13.7170991,16.5595243 C9.48315974,12.8482515 5.79637186,8.51503941 1.32243247,5.08170608 C1.43467489,4.72449396 1.58352338,4.38219093 1.76231126,4.05819093 C3.79115974,6.98510002 6.50412944,9.33952426 9.09540217,11.7561303 C10.2515234,12.8344334 11.3579476,13.9643727 12.5076446,15.0498273 C12.9572203,15.4741909 13.4240082,15.9852212 13.9274022,16.4266758 C13.8572203,16.4709182 13.7871597,16.5152818 13.7170991,16.5595243 L13.7170991,16.5595243 Z M14.5429173,16.0381909 C10.4340688,11.8752818 5.49515974,8.45164547 1.90946277,3.80546365 C2.06994762,3.54800911 2.25406883,3.30728184 2.45419005,3.08134244 C6.03528095,7.7699485 11.0362507,11.1471606 14.7219476,15.7612212 C14.7590385,15.8077667 14.8002507,15.8331 14.8423113,15.8491 C14.7424325,15.9120091 14.6426749,15.9751606 14.5429173,16.0381909 L14.5429173,16.0381909 Z M15.6724931,15.3249788 C15.5180688,15.4230394 15.3629173,15.5203727 15.2081294,15.6181909 C15.2349173,15.5249788 15.2284931,15.4208576 15.1560082,15.3271606 C11.5441294,10.6550394 6.49709914,7.36703941 2.64085671,2.90825153 C2.63661429,2.90328184 2.63128095,2.90146365 2.62643247,2.89746365 C2.82922035,2.68934244 3.05091732,2.50037274 3.28606883,2.32861517 C7.40146277,6.58728184 11.4920082,10.9402515 15.8253416,14.9715243 C15.9146749,15.054797 16.0168567,15.064494 16.1076446,15.0369788 C15.9624325,15.1361303 15.8170991,15.2331 15.6724931,15.3249788 L15.6724931,15.3249788 Z M16.271887,14.9243727 C16.3547961,14.8184334 16.3754022,14.6691 16.2481294,14.548494 C11.9726143,10.5026758 8.09188701,5.89758487 3.53382641,2.15782729 C3.85697792,1.95006971 4.20740217,1.78122123 4.57867489,1.6518879 C6.18037186,4.40267577 8.81855368,6.53964547 11.18619,8.60134244 C12.3573416,9.62110002 13.5608567,10.6049788 14.5853416,11.7739485 C15.1324931,12.3981909 16.0516446,13.7091 16.9173416,13.8806152 C17.1004931,13.9168576 17.2870385,13.7277667 17.1727355,13.5482515 C16.7260688,12.8453424 15.89819,12.2743121 15.3204931,11.6726152 C14.2688567,10.5777061 13.1779476,9.58425153 12.0124931,8.60558487 C9.4217052,6.42970608 6.81079611,4.34825153 4.84219005,1.56873638 C4.94025065,1.54085759 5.03782641,1.5118879 5.13867489,1.49006971 C7.46000823,0.988857593 9.16534156,2.65540305 10.0330991,4.5819485 C9.57467489,4.13831214 9.11722035,3.69382729 8.64982641,3.25964547 C7.93928095,2.59964547 7.15431126,1.70497881 6.17746277,1.51346365 C6.09358398,1.49697881 6.04146277,1.60667577 6.11831126,1.65370608 C7.13091732,2.27249396 8.05261429,3.35358487 8.89964459,4.17613032 C10.2613416,5.49855456 11.5730991,6.87285759 12.8888567,8.24049396 C13.887887,9.2789182 14.8853416,10.3174637 15.8768567,11.3629182 C16.3074022,11.8168576 17.4887355,13.4811 18.2893416,13.2437667 C18.2911597,13.2432818 18.2920082,13.2423121 18.2937052,13.2417061 C17.649584,13.8716455 16.9623113,14.4398879 16.271887,14.9243727 L16.271887,14.9243727 Z M18.4355234,13.1060697 C18.4659476,13.0021909 18.4100688,12.8746758 18.2897052,12.8263121 C17.2835234,12.4219485 16.2294628,10.8277667 15.4990385,10.0573424 C14.4979476,9.00146365 13.4601294,7.98025153 12.4340688,6.94873638 C11.9275234,6.43952426 11.417584,5.93358487 10.9060688,5.42934244 C11.0810991,5.35067577 11.2048567,5.16897881 11.1414628,4.91710002 C11.1257052,4.85455456 11.105584,4.7958879 11.0883719,4.73479699 C11.1179476,4.63322123 11.1544325,4.53746365 11.1889779,4.44000911 C11.5649779,5.64364547 13.2751597,6.81697881 14.061584,7.51031214 C15.7818264,9.02679699 17.6167355,10.4089788 19.3018264,11.9657061 C19.3362507,11.9977061 19.3728567,12.0157667 19.4097052,12.0269182 C19.1024325,12.4025546 18.7767355,12.7642515 18.4355234,13.1060697 L18.4355234,13.1060697 Z M19.7067961,11.6492212 C19.6957658,11.6312818 19.6883719,11.6127364 19.6716446,11.5955243 C18.2680082,10.1545546 16.5665537,8.97140305 15.0075234,7.70716062 C13.7914022,6.72122123 12.0756446,5.55213032 11.3229173,4.09806971 C11.4703113,3.75867577 11.6517658,3.45067577 11.8560082,3.16728184 C11.9740688,3.49806971 12.2830385,4.00134244 12.3504325,4.0838879 C12.9670385,4.84170608 13.6818264,5.48316062 14.4298264,6.10825153 C16.2887355,7.66182729 18.0402507,9.35710002 19.9332203,10.8636455 C20.035887,10.9453424 20.1544325,10.9360091 20.2440082,10.8832818 C20.0750385,11.1441303 19.8963719,11.4000091 19.7067961,11.6492212 L19.7067961,11.6492212 Z M20.3763719,10.6739485 C20.3763719,10.6162515 20.353584,10.5561303 20.2946749,10.5018273 C18.3899476,8.74073638 16.401584,7.15164547 14.3746749,5.54243335 C13.503887,4.8509182 12.5917658,4.08982729 12.0723719,3.08922123 C12.0596446,3.06449396 12.0425537,3.01734244 12.0209779,2.96400911 C12.0504325,2.97928184 12.0770991,2.99952426 12.107281,3.01370608 C12.1274022,3.02473638 12.1441294,2.99576668 12.1250991,2.98316062 C12.0899476,2.95976668 12.0618264,2.94473638 12.0332203,2.92922123 C12.1916446,2.73516062 12.3637658,2.55697881 12.5458264,2.39237274 C13.6265537,3.9958879 15.0309173,5.4118879 16.3922507,6.7598879 C17.4537052,7.81103941 19.1034022,9.82958487 20.6323719,10.2280091 C20.5497052,10.3779485 20.4669173,10.5276455 20.3763719,10.6739485 L20.3763719,10.6739485 Z M20.8277658,9.85697881 C20.3664325,9.30970608 19.6203719,8.91916062 19.07019,8.47552426 C18.2626749,7.82437274 17.4900688,7.12800911 16.7276446,6.42522123 C15.3071597,5.11613032 13.9693416,3.71746365 12.7820688,2.19467577 C12.9436446,2.06582729 13.113584,1.94934244 13.2883719,1.84146365 C14.6337052,3.10861517 15.9426749,4.41103941 17.2745537,5.69213032 C18.4374628,6.81055456 19.7641294,8.16837274 21.2603719,8.82946365 C21.2635234,8.8309182 21.2670385,8.83055456 21.2703113,8.83176668 C21.1447355,9.17940305 20.9963719,9.52158487 20.8277658,9.85697881 L20.8277658,9.85697881 Z M21.4086143,8.40449396 C20.1463113,7.37976668 18.8121294,6.46352426 17.5881294,5.37843335 C16.2231597,4.16861517 14.9252203,2.88206971 13.5391597,1.69661517 C13.7955234,1.55722123 14.0634022,1.44073638 14.3384325,1.34352426 C15.4349173,2.60897881 16.6297052,3.78013032 17.879281,4.89564547 C18.9036446,5.81006971 20.2377052,7.19722123 21.587887,7.69043335 C21.5396446,7.93043335 21.4796446,8.16861517 21.4086143,8.40449396 L21.4086143,8.40449396 Z M21.6763719,7.12182729 C20.5870385,6.21661517 19.2888567,5.48570608 18.1930991,4.58182729 C16.9347961,3.5438879 15.7143113,2.44073638 14.579281,1.26485759 C14.8867961,1.17128184 15.203281,1.10934244 15.5226749,1.06679699 C16.3614628,2.05952426 17.2869173,2.96461517 18.2660688,3.82740305 C19.2956446,4.73455456 20.4709173,5.80655456 21.7208567,6.42255456 C21.7174628,6.65697881 21.7036446,6.89031214 21.6763719,7.12182729 L21.6763719,7.12182729 Z" id="Shape"></path>
                        </g>
                    </g>
                </g>
            </g>
        </g>
    </g>
</svg>