
<svg width="7px" height="13px" viewBox="0 0 7 13" version="1.1" xmlns="http://www.w3.org/2000/svg" xmlns:xlink="http://www.w3.org/1999/xlink">
    <!-- Generator: Sketch 45.1 (43504) - http://www.bohemiancoding.com/sketch -->
    <desc>Created with Sketch.</desc>
    <defs></defs>
    <g id="Home" stroke="none" stroke-width="1" fill="none" fill-rule="evenodd">
        <g id="Home-final" transform="translate(-1383.000000, -1002.000000)" fill-rule="nonzero" fill="#53585F">
            <g id="Group-11" transform="translate(50.000000, 985.000000)">
                <g id="Group-8" transform="translate(1286.000000, 14.000000)">
                    <g id="right-arrow" transform="translate(47.000000, 3.000000)">
                        <path d="M0.814391534,12.6891005 C0.726349206,12.7771429 0.616296296,12.821164 0.495238095,12.821164 C0.374179894,12.821164 0.264126984,12.7771429 0.176084656,12.6891005 C1.56819002e-15,12.5130159 1.56819002e-15,12.2268783 0.176084656,12.0507937 L5.78878307,6.43809524 L0.176084656,0.825396825 C7.84095011e-16,0.649312169 7.84095011e-16,0.363174603 0.176084656,0.187089947 C0.352169312,0.011005291 0.638306878,0.011005291 0.814391534,0.187089947 L6.74624339,6.1189418 C6.92232804,6.29502646 6.92232804,6.58116402 6.74624339,6.75724868 L0.814391534,12.6891005 L0.814391534,12.6891005 Z" id="Shape"></path>
                    </g>
                </g>
            </g>
        </g>
    </g>
</svg>